<?xml version="1.0" encoding="UTF-8"?>
<svg id="Layer_1" data-name="Layer 1" xmlns="http://www.w3.org/2000/svg" viewBox="0 0 1024 1023.99">
  <defs>
    <style>
      .cls-1 {
        fill: #f8f9f1;
      }

      .cls-1, .cls-2 {
        stroke-width: 0px;
      }

      .cls-2 {
        fill: #2a2a2a;
      }
    </style>
  </defs>
  <path class="cls-1" d="m258.97,750c1.76,8.19.62,16.48.72,24.72.06,5.06,1.06,10.26-.91,15.23-.83-13.32-1-26.64.19-39.95h0Z"/>
  <path class="cls-2" d="m512,.09c169.14,0,338.27.02,507.41-.09,3.74,0,4.59.84,4.59,4.59-.1,338.27-.1,676.54,0,1014.81,0,3.75-.84,4.59-4.59,4.59-338.27-.1-676.55-.1-1014.82,0-3.74,0-4.59-.84-4.59-4.59C.1,681.13.1,342.86,0,4.59,0,.84.84,0,4.59,0c169.14.11,338.27.09,507.41.09Z"/>
  <path class="cls-1" d="m523.96,593.93c-63.57,0-127.15-.11-190.72.05-25.65.06-48.76-7.21-69.07-22.83-13.79-10.6-22.86-24.93-29.34-40.8-13.53-33.17-8.29-64.75,10.54-94.06,14.05-21.88,34.77-35.2,60.39-40.4,2.86-.58,4.17-1.74,4.82-4.57,8.29-35.83,31.88-56.43,66.34-65.54,12.06-3.19,24.44-2.59,36.2,2.35,3.21,1.35,4.73,1.1,6.38-2.36,20.88-43.79,55.93-68.1,103.8-72.66,34.44-3.28,64.81,8.44,91.15,30.58,12.11,10.18,21.43,22.71,28.9,36.59,1.55,2.87,3.34,3.98,6.63,3.93,44.54-.66,83.37,40.12,83.23,81.61,0,2.89.89,3.87,3.73,4.55,33.46,8.11,55.65,28.99,66.43,61.34,8.03,24.09,5.38,47.84-6.34,70.46-15.32,29.56-39.68,46.39-72.38,51.42-2.28.35-4.64.33-6.96.33-64.57.02-129.15.01-193.72.01v-.03.03h0Z"/>
  <path class="cls-1" d="m441.66,768.37c-3.12,6.36-6.24,12.73-9.38,19.09-1,2.03-1.35,5.09-3.97,5.27-2.84.2-3.16-2.96-4.11-4.94-3.02-6.27-5.92-12.6-9.22-19.68-2.1,5.82-2.26,11.26-3.44,16.47-.51,2.24-.51,4.67-2,6.57-1.04,1.32-2.32,2.54-4.25,1.7-1.84-.8-2.95-2.09-2.53-4.3,2.35-12.55,4.68-25.11,7.04-37.66.28-1.5.71-3.04,2.62-3.15,1.84-.11,2.51,1.33,3.17,2.7,4.07,8.54,8.14,17.07,12.46,26.14,3.2-3.87,4.63-8.22,6.61-12.23,2.28-4.61,4.23-9.39,6.4-14.05.63-1.35,1.47-2.8,3.28-2.58,1.71.21,2.53,1.6,2.82,3.12,2.3,12.2,4.62,24.39,6.71,36.62.39,2.26-.12,5.06-3.05,5.49-2.9.43-4-1.9-4.46-4.33-1.26-6.65-2.41-13.32-3.61-19.98-.36-.09-.72-.19-1.08-.28h-.01Z"/>
  <path class="cls-1" d="m367.88,792.98c-13.57,0-23.51-9.96-23.54-23.6-.03-11.98,10.82-22.31,23.42-22.29,11.68.02,22.75,11.08,22.75,22.72,0,12.33-10.59,23.17-22.63,23.18h0Z"/>
  <path class="cls-1" d="m791.08,767.97h2.5c8.79,0,10.82,2.86,8.05,11.31-4.83,14.73-22.42,17.94-33.63,6.13-6.71-7.07-8.45-15.99-4.89-24.31,3.88-9.04,10.76-13.8,20.47-13.99,4.5-.09,8.83,1.42,12.3,4.6,1.59,1.45,3.66,2.99,1.53,5.36-1.81,2.02-3.93,2.68-6.63.97-8.03-5.09-16.9-2.04-20.45,6.86-3.41,8.54,4.29,19.77,13.45,19.43,2.11-.08,4.35-.56,6.01-2.11,1.79-1.67,4.48-3.66,3.72-5.94-.72-2.15-3.51.26-5.42-.07-1.29-.22-2.66.11-3.98.01-2.73-.21-3.57-2.05-3.61-4.49-.03-2.43,1.1-3.74,3.6-3.74h6.99v-.03h0Z"/>
  <path class="cls-1" d="m630.22,770.24c0-5.98.04-11.96-.02-17.94-.03-3.07,1.17-4.65,4.42-4.52,2.98.12,5.98-.05,8.96.03,9.12.25,14.41,8.7,10.27,16.81-1.08,2.12-1.28,3.21.43,5,4.45,4.66,4.38,10.3,2.09,15.77-2.26,5.4-6.65,7.71-12.7,7.57-14.76-.33-13.34,1.85-13.38-13.24v-9.47h-.07Z"/>
  <path class="cls-1" d="m726.28,774.96c0,4.07.02,8.15,0,12.22-.02,2.98-.41,6.25-4.14,6.17-3.45-.08-3.61-3.2-3.61-6.02-.01-11.15.02-22.31-.19-33.46-.09-4.47,1.53-6.5,6.14-6.1,2.81.24,5.65-.04,8.48.06,4.99.18,9.89,3.87,11.3,8.39,1.55,4.96.15,11.36-4.17,13.86-4.43,2.57-3.33,4.48-.73,7.36,2.11,2.33,3.9,4.97,5.77,7.52,2.03,2.78,2.39,5.72-.64,7.86-3.03,2.15-4.47-.76-5.88-2.68-3.75-5.14-7.37-10.38-11.04-15.58-.42.14-.85.27-1.27.41h-.02Z"/>
  <path class="cls-1" d="m602.21,772.43c3.29,4.49,6.42,8.77,9.56,13.05,1.65,2.25,2.35,4.45-.29,6.51-2.58,2.02-4.49.43-5.91-1.47-3.78-5.02-7.34-10.2-11.59-16.15-1.1,4.81-.48,8.86-.59,12.83-.08,2.95-.08,6.33-3.86,6.29-3.46-.04-4.14-3.07-4.11-6.23.1-10.48,0-20.96.08-31.43.06-7.04,1.11-7.77,8.04-8.04,6.79-.27,12.94.12,16.38,7.36,2.92,6.12,1.15,12.38-4.84,15.75-.85.48-1.72.93-2.88,1.55v-.02h.01Z"/>
  <path class="cls-1" d="m258.97,750c.82-2.03,2.47-2.43,4.44-2.37,2.48.07,4.97.03,7.45.07,9.78.16,14.98,8.16,10.88,17.1-1.06,2.31-.91,3.55.7,5.51,3.6,4.37,4.83,9.42,2.25,14.81-2.67,5.56-7.35,7.75-13.34,7.61-2.48-.05-4.97.03-7.45.15-2.36.11-4.25-.48-5.11-2.93,1.3-3.25-.02-6.52-.09-9.76-.22-10.07.93-20.12.28-30.19h-.01Z"/>
  <path class="cls-1" d="m557.01,792.98c-13.53-.13-13.61,1.91-13.46-13.56.08-8.32-.02-16.64.04-24.95.04-5.52,1.24-6.65,6.78-6.67,4.99-.02,9.97,0,14.96-.04,2.31-.02,3.86.73,4.02,3.32.16,2.68-1.16,4.15-3.73,4.27-3.48.15-6.98.23-10.46.05-4.48-.22-3.56,2.92-3.51,5.41.06,2.39-1.2,5.74,3.39,5.47,2.32-.13,4.65-.03,6.98.01,2.22.04,4.03.81,4.13,3.34.11,2.68-1.66,3.91-4.05,4.13-2.31.21-4.66.22-6.97.06-2.66-.19-3.82.98-3.32,3.47.51,2.53-2.07,6.55,2.85,7.11,3.28.37,6.64.13,9.96.18,3.13.04,5.17,1.41,5.1,4.76-.07,3.43-2.43,3.83-5.23,3.67-2.48-.14-4.98-.03-7.48-.03h0Z"/>
  <path class="cls-1" d="m475.8,792.82c-3.12-.23-7.06-1.2-9.93-4.65-1.39-1.67-2.14-3.44-.39-5.32,1.74-1.87,3.72-2.24,5.66-.39,2.75,2.62,5.59,3.32,8.92,1.06,3.58-2.43,3.69-6.56-.08-8.77-2.99-1.75-6.22-3.1-9.37-4.56-4.89-2.26-6.55-6.42-6.43-11.38.11-4.7,4.22-9.44,8.97-10.89,4.96-1.52,11.32-.12,13.83,3.12,1.17,1.52,1.81,3.11.35,4.95-1.56,1.97-3.34,2.04-5.25.83-1.39-.88-2.52-2.16-4.41-1.89-2.7.39-4.86,1.74-5.54,4.33-.75,2.83,1.35,4.17,3.7,5.02,2.34.84,4.77,1.47,7.01,2.51,6.35,2.95,9.18,8.93,7.58,15.6-1.47,6.15-6.95,10.38-14.61,10.44h-.01Z"/>
  <path class="cls-1" d="m701.18,752.93c-.89,2.26-2.75,2.54-4.86,2.46-2.48-.1-5.03.3-7.43-.16-5.11-.99-5.5,1.62-5.59,5.73-.09,4.08,1,5.84,5.21,5.26,1.62-.23,3.31-.08,4.96,0,2.44.13,4.92.65,5.03,3.65.11,3.09-2.43,3.59-4.84,3.75-1.98.13-3.98.19-5.96.03-3.11-.26-4.78.75-4.25,4.14.37,2.39-.81,4.97.86,7.21,4.98.76,9.95.7,14.93.04,2.88.34,3.29,2.39,3.07,4.69-.18,1.91-1.46,3.06-3.3,3.07-6.59.06-13.19.02-19.78-.11-1.1-.02-2.21-.65-2.77-1.81-.36-12.42-.03-24.85-.19-37.28-.05-3.83,1.59-5.36,5.41-5.2,4.63.19,9.28.25,13.9-.02,3.5-.2,5.33,1.04,5.59,4.54h.01Z"/>
  <path class="cls-1" d="m512.35,773.76c0-4.66-.18-9.34.06-13.99.17-3.39-1.16-4.52-4.35-4.12-1.15.15-2.33.04-3.49,0-2.69-.1-4.53-1.25-4.49-4.19.04-3.1,2.11-3.76,4.75-3.75,7.32.03,14.64.01,21.96-.02,2.58-.01,4.81.48,4.77,3.67-.04,3.16-2.11,4.64-4.95,4.2-5.85-.91-6.94,1.81-6.64,6.99.43,7.47.19,14.98.2,22.48,0,1.49-.08,3-.35,4.45-.41,2.21-1.78,3.76-4.11,3.49-2.23-.27-3.39-1.93-3.4-4.23-.02-5,0-9.99,0-14.99h.05-.01Z"/>
  <path class="cls-1" d="m305.7,769.89v-16.94c0-2.68.5-5.46,3.58-5.6,3.49-.16,4.08,2.87,4.12,5.65.13,9.13.3,18.27.15,27.39-.06,3.5,1.05,4.81,4.53,4.44,2.3-.24,4.64-.03,6.96-.06,2.87-.03,5.05.92,4.91,4.17-.14,3.16-2.31,4.02-5.18,3.98-4.48-.07-8.96-.11-13.43.1-4.16.19-5.69-1.94-5.7-5.71-.02-5.81,0-11.62,0-17.43h.08-.02,0Z"/>
  <path class="cls-1" d="m701.18,752.93c-1.28-2.96-3.51-4.14-6.73-3.99-3.65.17-7.31.18-10.96,0-4.46-.23-6.31,1.63-6.23,6.15.16,9.81.04,19.62.02,29.43,0,2.15.21,4.34-.81,6.37-1.21-1.17-1.09-2.69-1.08-4.18.01-10.94.09-21.88,0-32.81-.03-4.34,1.61-6.42,6.2-6.21,5.12.24,10.26.05,15.39.05,3.55,0,5.45,1.32,4.2,5.2h0Z"/>
  <path class="cls-1" d="m699.25,785.04c-4.98,1.36-9.96,1.4-14.93-.04,4.98.01,9.95.03,14.93.04Z"/>
  <path class="cls-2" d="m503.09,519.86c-3.35-5.04-6.89-9.68-11.62-13.17-2.2-1.62-1.53-3.33-.98-5.26,2.8-9.8,4.58-19.69,3.36-29.98-2.25-19.04-11.3-34.28-26.11-45.99-7.12-5.63-9.57-12.99-9.97-21.3-1.67-34.46,22.7-67.48,57.42-77.19,26.78-7.49,50.55-.73,71.2,17.36,20.41,17.88,29.81,40.62,28.88,67.73-.21,6.02,2.21,8.45,8.43,8.45,7.28,0,14.49-.81,21.84.19,29.86,4.06,50.4,28.69,48.88,59.19-.08,1.66-.37,3.32-.37,4.98,0,4.48,2.29,6.72,6.85,6.45,6.86-.42,13.52.15,20.11,2.37,16.77,5.66,27.66,20.66,28.3,38.33.75,20.4-9.92,33.5-27.17,41.3-4.83,2.18-9.75,6.64-16.47,5.04-3.09-.73-4.62-.92-4.71-4.46-.48-19.37-8.59-35.3-22.49-48.44-2.64-2.49-5.59-4.79-8.75-6.56-3.21-1.8-3.56-3.97-3.06-7.33,4.82-32.74-14.05-59.31-46.48-64.76-17.47-2.93-32.31,3.29-44.8,15.54-1.65,1.62-3.02,3.24-5.73,3.44-33.26,2.41-54.44,20.27-65.16,51.37-.22.63-.4,1.27-.62,1.89-.05.14-.21.23-.78.81h0Z"/>
  <path class="cls-2" d="m750.46,570.07c8.9-10.81,13.85-23.01,13.59-37.09-.54-29.6-20.55-52.24-49.93-56.23-4.08-.55-5.28-1.71-5.45-6.06-1.43-35.32-32.66-65.15-68.07-65.4h-1c-9.23-.06-8.82-.12-10.29-9.36-6.41-40.25-27.74-68.84-66.99-81.74-50.03-16.45-103.61,14.29-115.99,65.53-2.24,9.28-3.83,18.56-2.82,28.12.35,3.29.09,4.87-4.29,4.24-21.41-3.08-41.32.68-58.76,14.3-8.03,6.27-14.12,14.12-18.16,23.4-1.96,4.49-4.1,6.24-8.95,3.94-2.46-1.17-5.46-1.43-8.25-1.64-3.14-.24-4.65-1.78-5.58-4.66-11.58-35.74,14.87-77.75,57.82-77.29,5.75.06,11.5,1.47,17.22,2.45,6.5,1.12,10.65-1.77,10.67-8.26.05-22.61,9.19-41.56,23.51-58.27,18.36-21.42,41.76-34.49,69.57-38.39,28.04-3.93,53.78,3.42,76.86,19.72,20.59,14.55,35.21,33.64,42.58,57.96,1.68,5.56,2.92,11.2,2.58,17.15-.31,5.35,3.08,8.88,8.48,8.85,20.24-.1,43.12,19.48,48.26,41.37.45,1.91.24,3.98.39,5.96.48,6.33,5.1,9.7,11.33,8.3,29.05-6.54,55.37,5.26,71.88,30.32,18.76,28.45,15.47,62.8-3.16,89.34-2.75,3.92-6.15,7.43-9.58,10.79-5.11,5.02-10.95,9.16-17.47,12.61v.04h0Z"/>
  <path class="cls-2" d="m281.27,531.11c-1.54-3.16,1.03-3.83,2.68-5.01,1.48-1.06,3.37-2.01,2.7-4.26-.82-2.75-2.68-1.67-4.41-.96-.83.34-1.73.22-2.14-.65-.46-.99-.34-2.05.76-2.56,3.14-1.46,2.5-2.66.54-5.09-2.14-2.66-.16-6.28.68-9,8.17-26.35,32.8-38.15,54.03-37.66,23.09.53,45.29,17.86,51.1,40.01.84,3.19,1.12,6.54,1.44,9.83.55,5.66,3.42,8.72,9.11,8.06,28.98-3.38,50.64,26.69,49,51.58-.17,2.56-.87,3.49-3.46,3.49-31.45-.04-62.91-.02-94.36.05-2.41,0-3.8-.51-3.6-3.31.13-1.8-.57-3.31-2.78-3.31-2.61,0-2.27,1.82-2.13,3.51.13,1.53.37,3.06-1.97,3.15-2.03.08-2.5-1.08-2.73-2.75-.33-2.47-.91-4.91-1.17-7.39-.23-2.22-1.33-3.43-3.5-3.31-2.25.13-1.77,2.03-1.8,3.44-.05,2.5.05,5,.05,7.49,0,1.31-.45,2.28-2.04,2.18-1.33-.09-1.61-1.02-1.64-2.07-.07-2.5-.1-5-.1-7.49,0-2.36-1.3-3.19-3.47-3.23-2.61-.05-2.32,1.8-2.34,3.44-.03,2-.02,4-.02,6,0,1.29-.28,2.35-1.9,2.25-1.51-.09-1.89-1.07-1.87-2.39.04-3.5.08-7,.06-10.49,0-1.53-.2-3.34-1.99-3.55-2.2-.26-1.82,1.84-2.16,3.18-.65,2.57-1.31,5.14-1.94,7.72-.24.96-.31,2.17-1.62,2.13-1.41-.04-2.07-1.23-2.06-2.41.02-1.64.35-3.29.72-4.9.48-2.1,1.22-4.15,1.68-6.26.37-1.66.53-3.61-1.48-4.23-1.81-.56-2.53,1.22-3.23,2.51-1.27,2.33-2.44,4.73-3.69,7.07-.5.95-.71,2.52-2.36,1.8-1.35-.59-1.19-2-.88-3.06.95-3.23,2.84-5.99,4.72-8.75,1.11-1.63,2.66-3.38.4-5.19-2.73-2.19-3.27.98-4.48,2.12-1.07,1-1.67,2.48-2.65,3.61-.92,1.06-1.97,3.16-3.42,2.08-1.79-1.33.11-3.05.92-4.29,1.07-1.66,2.53-3.09,3.95-4.48,1.51-1.47,2.19-2.91.61-4.73-1.9-2.17-3.06-.39-4.53.69-1.83,1.34-4.16,5.09-5.51,3.37-2.38-3.02,2.56-3.55,3.81-5.57.42-.67,1.26-1.07,1.84-1.66,1.32-1.35,1.72-2.78.41-4.43-1.4-1.76-2.66-1.22-4.26-.14-1.89,1.28-4.51,4.58-5.97,2.52-1.65-2.33,2.75-3.11,4.17-4.88,1.25-1.56,3.9-2.36,1.93-5.23-2.13-3.08-3.64-.29-5.38.36-.76.28-1.47.68-2.25,1.04h-.02,0Z"/>
  <path class="cls-2" d="m652.48,502.15v.5c-.03,5.09-2.42,7.25-7.19,6.49-38.26-6.11-72.02,18.37-77.99,56.63-.6,3.83-3.48,7.24-1.92,11.51.38,1.04-.95,1.57-2.05,1.55-1.13-.02-2.43.28-2.89-1.25-.14-.47-.19-.97-.25-1.47-.26-2.24,1.38-5.75-2.43-5.89-3.22-.12-2.48,3.35-2.96,5.45-.35,1.52-.54,3.27-2.49,3.08-2.48-.23-1.29-2.19-1.18-3.5.1-1.32.49-2.63.57-3.95.09-1.63.38-3.59-1.94-3.93-1.98-.3-2.96.89-3.45,2.78-.58,2.25-1.48,4.41-2.12,6.64-.36,1.25-.83,2.29-2.31,1.97-2.04-.43-1.37-2-1.01-3.19.81-2.7,1.86-5.33,2.65-8.04.4-1.36.08-2.71-1.42-3.34-1.65-.69-2.35.36-3.04,1.66-1.47,2.8-3.11,5.5-4.59,8.29-.68,1.29-.95,3.24-3.05,1.96-1.8-1.1-1.63-2.6-.47-4.24,1.73-2.44,3.33-4.97,4.97-7.47,1.03-1.56,1.31-3.23-.36-4.41-1.74-1.23-3.07-.1-4.22,1.28-1.6,1.91-3.21,3.82-4.92,5.64-.82.87-1.67,2.49-3.19.93-1.3-1.35-.21-2.46.66-3.44,1.99-2.24,3.99-4.48,6.09-6.61,1.54-1.56,1.96-3.19.35-4.78-2.06-2.03-2.72.56-3.85,1.42-.92.7-1.65,1.66-2.62,2.28-1.28.82-2.87,2.68-4.12.39-.95-1.74-.28-3.48,1.86-4.45,1.49-.68,2.83-1.73,4.16-2.71,1.27-.94,2.29-2.18,1.35-3.82-.96-1.67-2.56-2.01-4.34-1.38-.62.22-1.21.56-1.77.91-1.56.97-3.34,1.6-4.12-.56-.76-2.1,1.06-2.79,2.76-3.28.95-.27,1.94-.59,2.77-1.11,1.32-.82,2.42-1.99,1.87-3.69-.56-1.76-2.03-1.96-3.67-1.64-1.66.32-3.78,1.64-4.19-1.46-.38-2.87,1.73-2.63,3.58-2.73.92-.05,2.15.21,2.31-1.21.16-1.4-.19-2.9-1.47-3.48-3.21-1.47-2.49-3.87-1.83-6.33,5.42-20.28,25.67-37.67,46.44-39.84,5.53-.58,10.96.27,16.2,1.99,3,.99,5.54.63,7.89-1.35,2.56-2.15,2.9-5.36,1.64-7.77-2.72-5.22,1.17-6.54,4.23-8.14,14.56-7.62,34.32-3.94,45.87,8.24,7.7,8.13,11.71,17.61,11.19,28.89v-.02h0Z"/>
  <path class="cls-2" d="m479.85,479.42c.28,4-1.22,8.31-1.86,12.74-.52,3.56-2.09,4.36-5.46,2.89-7.84-3.43-16.07-4.97-24.69-5.06-15.71-.16-29.74,4.54-42.19,13.98-2.64,2-3.57,1.95-4.43-1.47-3.9-15.63-12.71-28.07-25.54-37.61-2.95-2.19-2.89-4.03-1.53-7.08,10.15-22.79,36.21-36.37,60.83-31.51,25.71,5.08,44.24,26.78,44.88,53.11h-.01Z"/>
  <path class="cls-2" d="m280.05,563.55c-13.53-8.71-23.42-20.59-30.16-34.96-13.62-29.04-9.68-56.87,7.24-83.16,12.24-19.02,29.96-30.66,52.06-35.56.65-.14,1.3-.38,1.95-.4,4.32-.12,9.78-1.85,12.64.15,3.15,2.21-.37,7.51-.84,11.43-1.08,9.18-1.1,18.25,1.29,27.16.87,3.23-.22,4.07-3.04,4.62-28.74,5.67-49.08,25.57-54.67,53.83-4.14,20.92.23,39.92,13.53,56.88h0Z"/>
  <path class="cls-2" d="m633.52,578.77c-16.14,0-32.29-.1-48.43.07-3.73.04-4.96-1.11-4.74-4.86,1.3-21.44,14.58-43.1,40.1-49.33,31.95-7.8,64.18,15.48,65.9,47.74.23,4.29-1.74,6.44-5.9,6.45h-46.94v-.07h.01Z"/>
  <path class="cls-2" d="m420.89,511.69c12.88-7.54,25.44-9.18,38.75-5.43,27.23,7.66,48.23,35.78,43.82,65.38-1,6.69-1.43,7.14-8.06,7.13-9.65,0-19.3-.22-28.94.03-4.2.11-5.32-1.31-5.32-5.41-.03-22.45-9.18-40.46-26.96-54.12-3.81-2.93-8.26-4.77-13.28-7.58h-.01Z"/>
  <path class="cls-2" d="m398.84,354.99c-27.42.07-48.86,11.41-64.28,34.15-.73,1.07-1.52,2.49-2.59,2.85-1.86.64-4.09.54-5.69-.77-1.52-1.25-.08-2.79.37-4.09,9.94-28.8,39.2-49.23,66.1-48.16,5.89.24,11.44,1.61,16.93,3.63,2.54.94,3.39,2.3,2.59,4.89-.44,1.42-.77,2.92-.83,4.39-.14,3.14-1.84,3.88-4.64,3.57-2.64-.29-5.3-.32-7.96-.47h0Z"/>
  <path class="cls-2" d="m718.27,403.55c-.21,1.84.51,3.79-.85,5.35-1.99,2.29-5.31,1.07-6.46-2.43-5.93-17.93-16.76-31.95-33.13-41.52-5.91-3.46-12.24-6.01-18.89-7.64-3.13-.76-4.88-2.21-5.1-5.61-.16-2.47-.8-4.92-1.37-7.35-1.24-5.27-.71-5.93,4.87-5.18,19.52,2.63,34.7,12.69,46.65,27.9,8.39,10.68,13.81,22.67,14.28,36.46v.02h0Z"/>
  <path class="cls-2" d="m381.77,770.3c.2,8.56-6.61,14.33-15.57,14.49-7.03.13-14.16-7.81-13.99-14.86.2-7.83,7.75-15.01,15.65-14.89,7.44.12,14.01,7.32,13.91,15.25h0Z"/>
  <path class="cls-2" d="m637.74,779.14c.05-3.5-.89-6.81,4.14-6.43,5.07.38,8.48,2.69,8.28,6.6-.23,4.57-3.27,5.22-7.21,5.53-5.32.41-5.78-2.33-5.2-5.7h-.01Z"/>
  <path class="cls-2" d="m637.76,759.97c-.09-2.62-.48-5.38,3.8-5.05,3.13.24,5.74.84,5.8,4.55.07,3.87-2.2,5.49-5.93,5.79-4.41.35-3.63-2.65-3.67-5.29h0Z"/>
  <path class="cls-2" d="m726.16,761.25c-.12-3.52-.57-6.52,3.7-5.92,3.26.46,7.1.61,6.97,5.21-.12,4.24-3.47,4.97-6.97,5.36-4.91.56-3.53-2.97-3.7-4.65Z"/>
  <path class="cls-2" d="m593.17,761.13c-.3-3.1-.32-5.65,4.08-5.35,3.25.23,6.08.34,6.14,4.52.06,4.11-2.44,5.19-6.08,5.44-3.76.26-4.68-1.46-4.13-4.62h-.01Z"/>
  <path class="cls-2" d="m269.78,772.94c4.51-.13,7.66.92,7.89,5.5.19,3.84-2.61,5.6-7.58,6s-4.27-2.71-4.25-5.72c.04-5.8.02-5.8,3.93-5.79h0Z"/>
  <path class="cls-2" d="m270.65,755.44c3.54-.65,5.06,1.25,4.82,4.4-.28,3.62-2.27,5.29-6.23,5.33-4.56.04-3.22-2.92-3.51-5.3-.48-3.92,1.47-5.01,4.92-4.43h0Z"/>
</svg>